<?xml version="1.0" encoding="UTF-8" standalone="no"?>
<svg
   xmlns:dc="http://purl.org/dc/elements/1.1/"
   xmlns:cc="http://creativecommons.org/ns#"
   xmlns:rdf="http://www.w3.org/1999/02/22-rdf-syntax-ns#"
   xmlns:svg="http://www.w3.org/2000/svg"
   xmlns="http://www.w3.org/2000/svg"
   xmlns:sodipodi="http://sodipodi.sourceforge.net/DTD/sodipodi-0.dtd"
   xmlns:inkscape="http://www.inkscape.org/namespaces/inkscape"
   viewBox="0 0 228.66 39.08"
   version="1.1"
   id="svg1113"
   sodipodi:docname="navbar-logo-eva.svg"
   inkscape:version="1.0.2 (394de47547, 2021-03-26)">
  <metadata
     id="metadata1119">
    <rdf:RDF>
      <cc:Work
         rdf:about="">
        <dc:format>image/svg+xml</dc:format>
        <dc:type
           rdf:resource="http://purl.org/dc/dcmitype/StillImage" />
        <dc:title></dc:title>
      </cc:Work>
    </rdf:RDF>
  </metadata>
  <defs
     id="defs1117">
    <rect
       x="1.9278792"
       y="41.706969"
       width="225.66363"
       height="30.584834"
       id="rect1123" />
  </defs>
  <sodipodi:namedview
     pagecolor="#ffffff"
     bordercolor="#666666"
     borderopacity="1"
     objecttolerance="10"
     gridtolerance="10"
     guidetolerance="10"
     inkscape:pageopacity="0"
     inkscape:pageshadow="2"
     inkscape:window-width="1920"
     inkscape:window-height="960"
     id="namedview1115"
     showgrid="false"
     inkscape:zoom="5.7202834"
     inkscape:cx="114.33"
     inkscape:cy="19.54"
     inkscape:window-x="0"
     inkscape:window-y="1107"
     inkscape:window-maximized="1"
     inkscape:current-layer="svg1113" />
  <style
     id="style1083">.cls-1{fill:#fed136;}</style>
  <path
     d="m 8.783854,5.872395 h 2.859376 q 1.489257,0 2.501953,1.131836 1.23112,1.290691 1.23112,4.30892 0,3.177083 -1.23112,4.48763 -1.012696,1.092123 -2.501953,1.092123 H 8.783854 Z m 4.586915,13.7806 q 3.852213,-0.03971 5.877604,-3.19694 1.528971,-2.382813 1.528971,-4.785482 0,-2.978516 -1.96582,-5.242188 Q 16.885417,4.164713 13.986329,3.727864 L 13.807618,3.708004 Q 13.231771,3.62858 12.735352,3.62858 H 5.8847658 q -1.2311198,0 -2.1048178,0.873698 -0.8736979,0.873698 -0.8736979,2.025391 v 19.022787 q 0,1.270833 0.8736979,2.065104 0.7942709,0.873698 2.0253907,0.833985 h 0.079427 Q 7.0364585,28.489255 7.9101564,27.61556 8.783854,26.781576 8.783854,25.550456 v -5.837891 z"
     style="font-style:normal;font-variant:normal;font-weight:normal;font-stretch:normal;font-size:40.6667px;line-height:0;font-family:Dyuthi;-inkscape-font-specification:Dyuthi;letter-spacing:0px;word-spacing:0px;white-space:pre;fill:#f50087;fill-opacity:1;stroke:none"
     id="path1145" />
  <path
     d="m 27.191081,25.451172 q 0,1.23112 -0.873698,2.104818 -0.853841,0.853841 -2.104818,0.853841 h -0.05957 q -1.191406,0 -2.065104,-0.853841 -0.873698,-0.873698 -0.873698,-2.104818 V 6.468099 q 0,-1.23112 0.873698,-2.104818 0.814127,-0.833985 2.065104,-0.833985 h 0.05957 q 1.250977,0 2.104818,0.833985 0.873698,0.873698 0.873698,2.104818 z"
     style="font-style:normal;font-variant:normal;font-weight:normal;font-stretch:normal;font-size:40.6667px;line-height:0;font-family:Dyuthi;-inkscape-font-specification:Dyuthi;letter-spacing:0px;word-spacing:0px;white-space:pre;fill:#f50087;fill-opacity:1;stroke:none"
     id="path1147" />
  <path
     d="m 34.915366,18.878581 q 0,-2.422526 0.476563,-3.514649 0.536132,-1.151693 1.40983,-1.548828 1.806967,-0.873698 3.63379,-0.178711 1.588541,0.61556 1.945963,1.727539 v 6.711589 q 0,2.204102 -1.886393,2.859375 -0.933268,0.297852 -1.84668,0.178711 -1.548828,0.03971 -2.64095,-1.409831 -1.092123,-1.449544 -1.092123,-3.514648 z m -2.899089,6.850586 q 2.541667,2.680664 6.1556,2.680664 1.032552,0 2.978515,-1.270833 0.476563,-0.317709 1.012696,-0.238282 0.555989,0.05957 0.953125,0.49642 0.933268,1.012695 1.449544,1.012695 h 2.382813 q 0.476562,0 0.833984,-0.357422 0.337565,-0.297851 0.337565,-0.794271 V 12.762695 q 0,-0.873698 -0.61556,-1.528971 -0.635416,-0.575847 -1.489258,-0.575847 H 44.48633 q -0.873698,0 -1.449544,0.575847 -0.655274,0.655273 -0.655274,1.528971 v 0 q -1.151693,-2.680664 -4.209635,-2.680664 -3.613933,0 -6.1556,2.680664 -2.541666,2.680664 -2.541666,6.493164 0,3.792644 2.541666,6.473308 z"
     style="font-style:normal;font-variant:normal;font-weight:normal;font-stretch:normal;font-size:40.6667px;line-height:0;font-family:Dyuthi;-inkscape-font-specification:Dyuthi;letter-spacing:0px;word-spacing:0px;white-space:pre;fill:#f50087;fill-opacity:1;stroke:none"
     id="path1149" />
  <path
     d="M 59.319339,23.703776 Q 57.631513,22.830078 57.65137,19.791992 v -5.222331 h 1.667969 q 0.774414,0 1.29069,-0.516276 0.55599,-0.496419 0.55599,-1.330403 v -0.03971 q 0,-0.7347 -0.55599,-1.310547 -0.55599,-0.575846 -1.29069,-0.575846 H 57.65137 V 8.771484 Q 57.631513,7.838216 57.055667,7.103515 56.261396,6.09082 55.586266,6.09082 h -0.07943 Q 54.414713,6.07096 53.81901,6.567382 52.726888,7.38151 52.726888,8.771484 v 2.025391 h -0.714844 q -0.794271,0 -1.350261,0.575846 -0.536132,0.536133 -0.536132,1.310547 v 0.03971 q 0,0.833984 0.536132,1.330403 0.536133,0.516276 1.350261,0.516276 h 0.714844 v 4.864909 0 q 0,3.713217 1.23112,6.1556 1.449544,2.839518 3.832356,2.819661 1.469402,0.01986 2.144532,-2.025391 0.277995,-0.873698 0.178711,-1.528971 -0.138998,-0.774414 -0.794271,-1.151693 z"
     style="font-style:normal;font-variant:normal;font-weight:normal;font-stretch:normal;font-size:40.6667px;line-height:0;font-family:Dyuthi;-inkscape-font-specification:Dyuthi;letter-spacing:0px;word-spacing:0px;white-space:pre;fill:#f50087;fill-opacity:1;stroke:none"
     id="path1151" />
  <path
     d="M 76.435875,5.356119 Q 76.694013,4.224283 75.919599,3.350585 75.145185,2.496744 74.172203,2.516601 70.101565,2.576171 67.877607,5.137695 66.070641,7.222656 66.070641,9.327474 v 2.64095 h -0.55599 q -0.774414,0.01986 -1.409831,0.61556 -0.61556,0.61556 -0.61556,1.429688 v 0.03971 q 0,0.814128 0.61556,1.429688 0.55599,0.595703 1.409831,0.595703 h 0.55599 v 9.809245 q 0,1.151693 0.714843,1.84668 0.794271,0.754557 1.886394,0.754557 h 0.07943 q 1.072266,0 1.84668,-0.754557 0.754557,-0.774414 0.754557,-1.84668 v -9.809245 h 1.568685 q 0.873698,0 1.429687,-0.595703 0.595704,-0.575847 0.595704,-1.429688 v -0.03971 q -0.01986,-0.833985 -0.595704,-1.429688 -0.615559,-0.61556 -1.429687,-0.61556 h -1.568685 v -1.628255 q 0,-3.097656 3.415365,-3.25651 1.29069,-0.05957 1.667968,-1.667969 z"
     style="font-style:normal;font-variant:normal;font-weight:normal;font-stretch:normal;font-size:40.6667px;line-height:0;font-family:Dyuthi;-inkscape-font-specification:Dyuthi;letter-spacing:0px;word-spacing:0px;white-space:pre;fill:#f50087;fill-opacity:1;stroke:none"
     id="path1153" />
  <path
     d="m 88.032229,25.232748 q -1.330403,-0.01986 -2.660807,-1.489258 -1.330404,-1.449545 -1.35026,-5.917318 0,-1.985677 1.35026,-3.514649 1.131836,-1.250976 2.660807,-1.270833 1.767253,0.01986 2.938803,1.270833 1.032552,1.151693 1.052409,3.514649 -0.01986,4.706055 -1.052409,5.917318 -1.330404,1.469401 -2.938803,1.489258 z m 9.570964,-6.096029 q -0.01986,-3.931641 -2.819661,-6.711589 -2.779948,-2.799805 -6.771159,-2.799805 -0.277995,0 -0.536133,0.01986 -3.435222,-0.01986 -6.21517,2.740235 -2.760091,2.760091 -2.779948,6.731445 0,3.951498 2.859375,6.810873 2.879232,2.859375 6.691732,2.700521 0.258138,0.01986 0.536133,0 3.375651,0.01986 6.195313,-2.760092 2.819662,-2.799804 2.839518,-6.731445 z"
     style="font-style:normal;font-variant:normal;font-weight:normal;font-stretch:normal;font-size:40.6667px;line-height:0;font-family:Dyuthi;-inkscape-font-specification:Dyuthi;letter-spacing:0px;word-spacing:0px;white-space:pre;fill:#f50087;fill-opacity:1;stroke:none"
     id="path1155" />
  <path
     d="m 110.94694,10.101888 q -3.03809,0 -4.18978,0.814127 -0.5957,0.397136 -1.1914,1.330404 -1.35026,-2.065104 -2.79981,-2.065104 h -0.0993 q -1.13184,0 -2.00554,0.833984 -0.79427,0.794271 -0.79427,1.965821 v 12.60905 q 0,1.171549 0.79427,1.96582 0.79427,0.814128 1.96582,0.814128 h 0.0596 q 1.17155,0 1.96582,-0.814128 0.83399,-0.853841 0.83399,-1.96582 v -7.684571 q 0,0 0.0397,0 0,0 0,-0.03971 0,-0.198567 0.0397,-0.436849 0.23828,-1.052408 1.54882,-1.985677 1.29069,-0.913411 3.11752,-0.61556 1.09212,0.158855 1.37011,-1.608398 l 0.39714,-1.84668 q 0.0993,-0.476562 -0.21843,-0.893555 -0.27799,-0.377278 -0.83398,-0.377278 z"
     style="font-style:normal;font-variant:normal;font-weight:normal;font-stretch:normal;font-size:40.6667px;line-height:0;font-family:Dyuthi;-inkscape-font-specification:Dyuthi;letter-spacing:0px;word-spacing:0px;white-space:pre;fill:#f50087;fill-opacity:1;stroke:none"
     id="path1157" />
  <path
     d="m 143.49219,18.898438 q 0,-4.269206 -2.14453,-6.910157 -2.44238,-2.998372 -6.59245,-2.184245 -1.44954,0.297852 -4.22949,3.038086 h -0.11914 q -2.54167,-4.209635 -7.16829,-3.038086 -0.77442,0.198568 -1.96582,1.012696 -0.19857,0.158854 -0.67513,0.655273 -0.37728,0.357422 -0.57585,0.516276 v 0 q 0,-0.774414 -0.55599,-1.310547 -0.51628,-0.516276 -1.23112,-0.516276 h -2.10482 q -0.79427,0.01986 -1.29069,0.516276 -0.51627,0.516276 -0.51627,1.310547 v 14.038737 q 0,1.092123 0.7347,1.806967 0.53613,0.555989 1.86653,0.555989 h 0.37728 q 1.33041,0 1.8864,-0.555989 0.75455,-0.754558 0.75455,-1.806967 v -9.372396 q 0,-1.211263 0.8737,-2.243815 0.81413,-0.992838 2.12468,-1.012695 1.37011,-0.03971 2.32324,0.893555 0.95312,0.953125 0.95312,2.263672 v 9.471679 q -0.0199,1.032553 0.75456,1.806967 0.51628,0.555989 1.84668,0.555989 h 0.51628 q 1.37011,0 1.86653,-0.555989 0.7347,-0.774414 0.7347,-1.806967 v -9.372396 q 0,-1.29069 0.8737,-2.243815 0.8737,-0.992838 2.16439,-1.012695 1.31055,-0.03971 2.28353,0.893555 0.99284,0.953125 0.99284,2.263672 v 9.471679 q 0,1.092123 0.71484,1.806967 0.53613,0.555989 1.88639,0.555989 h 0.0397 q 1.3304,0 1.84668,-0.555989 0.75455,-0.774414 0.75455,-1.806967 z"
     style="font-style:normal;font-variant:normal;font-weight:normal;font-stretch:normal;font-size:40.6667px;line-height:0;font-family:Dyuthi;-inkscape-font-specification:Dyuthi;letter-spacing:0px;word-spacing:0px;white-space:pre;fill:#f50087;fill-opacity:1;stroke:none"
     id="path1159" />
  <path
     d="m 166.65398,24.001628 v -6.27474 l 7.20801,0.178711 q 0.89355,0.01986 1.58854,-0.655273 0.65528,-0.635417 0.65528,-1.588542 v -0.07943 q 0.0199,-0.933269 -0.63542,-1.548828 -0.71485,-0.675131 -1.6084,-0.655274 l -7.20801,0.178711 V 7.91764 l 7.64486,0.357422 q 0.77441,0.03971 1.44954,-0.496419 0.21843,-0.178711 0.77442,-1.270834 l 0.0199,-0.07943 Q 177.07884,5.336257 176.10586,4.14485 175.47044,3.350579 174.3386,3.350579 h -10.10709 q -1.50912,0 -2.50196,1.012696 -1.05241,1.092122 -1.05241,2.541667 v 17.950521 q 0,1.449544 1.05241,2.501953 1.05241,1.052409 2.50196,1.052409 h 10.64323 q 0.95312,0.01986 1.60839,-0.655273 0.65528,-0.635417 0.65528,-1.588542 v -0.07943 q 0,-0.992839 -0.65528,-1.588542 -0.7347,-0.655273 -1.60839,-0.655273 z"
     style="font-style:normal;font-variant:normal;font-weight:normal;font-stretch:normal;font-size:40.6667px;line-height:0;font-family:Dyuthi;-inkscape-font-specification:Dyuthi;letter-spacing:0px;word-spacing:0px;white-space:pre;fill:#f50087;fill-opacity:1;stroke:none"
     id="path1161" />
  <path
     d="m 180.15658,7.401367 q -0.47656,-1.429688 0.39714,-2.640951 0.87369,-1.23112 2.3431,-1.23112 h 0.69498 q 0.93327,0 1.7474,0.575847 0.77441,0.555989 1.01269,1.489258 l 2.24382,8.578125 q 1.82682,6.453451 2.3431,8.836263 h 0.11914 q 0.139,-0.714844 2.38281,-8.697266 l 2.18425,-8.756836 q 0.21842,-0.853841 1.09212,-1.489258 0.75456,-0.536133 2.24381,-0.536133 h 0.0596 q 1.50912,0 2.40267,1.270834 0.85384,1.191406 0.35742,2.64095 l -6.0166,17.751954 q -0.51627,1.489258 -1.76725,2.323242 -1.4694,0.893555 -2.83952,0.893555 h -0.55599 q -1.58854,0 -2.83952,-0.893555 -1.29069,-0.933268 -1.76725,-2.402669 z"
     style="font-style:normal;font-variant:normal;font-weight:normal;font-stretch:normal;font-size:40.6667px;line-height:0;font-family:Dyuthi;-inkscape-font-specification:Dyuthi;letter-spacing:0px;word-spacing:0px;white-space:pre;fill:#f50087;fill-opacity:1;stroke:none"
     id="path1163" />
  <path
     d="m 212.42384,17.726888 3.23665,-8.91569 3.2168,8.91569 z m 7.80371,-10.841797 q -0.51628,-1.429688 -1.78711,-2.323242 -1.29069,-0.893555 -2.58138,-0.893555 h -0.55599 q -1.31055,0 -2.58138,0.893555 -1.27083,0.893554 -1.78711,2.402669 l -6.0166,17.473959 q -0.49642,1.429687 0.39713,2.680664 0.8737,1.23112 2.36296,1.23112 h 0.43685 q 1.13184,0 1.98568,-0.595703 0.83398,-0.55599 1.01269,-1.509115 l 0.95313,-4.864909 h 7.52571 l 1.03256,4.924479 q 0.15885,0.873698 1.01269,1.449545 0.79427,0.595703 1.72754,0.595703 h 0.43685 q 1.4694,0 2.40267,-1.270834 0.8737,-1.231119 0.35742,-2.64095 z"
     style="font-style:normal;font-variant:normal;font-weight:normal;font-stretch:normal;font-size:40.6667px;line-height:0;font-family:Dyuthi;-inkscape-font-specification:Dyuthi;letter-spacing:0px;word-spacing:0px;white-space:pre;fill:#f50087;fill-opacity:1;stroke:none"
     id="path1165" />
</svg>
